<svg id="Layer_1" data-name="Layer 1" xmlns="http://www.w3.org/2000/svg" viewBox="0 0 250 230"><defs><style>.cls-1{fill:#fff;}.cls-2{fill:#eb2227;}.cls-3,.cls-4{fill:#010101;}.cls-4{stroke:#1a181a;stroke-miterlimit:10;stroke-width:0.23px;}.cls-5{fill:#3499cd;}</style></defs><title>Untitled-4</title><rect class="cls-1" width="250" height="230"/><path class="cls-2" d="M1075.73,359.08a19,19,0,0,0-2.62-3.73,14.76,14.76,0,0,0-3.68-3q-7.21-4.1-13.56-2.43t-10.38,8.74a16.2,16.2,0,0,0-1.77,4.87,22.33,22.33,0,0,0-.49,4.87,32.57,32.57,0,0,0,.41,4.38q0.35,2.22.59,3.12a12.23,12.23,0,0,0,.41,1.34l9.07,30.78a2.32,2.32,0,0,0,2.83,1.61l19.18-4.89V359.08Z" transform="translate(-903 -324)"/><polygon class="cls-3" points="76.92 188.86 75.82 188.86 75.08 187.05 72.36 187.05 72.36 197.95 74.19 198.67 74.19 199.76 68.73 199.76 68.73 198.67 70.55 197.95 70.55 187.05 67.82 187.05 67.1 188.86 66.01 188.86 66.01 185.21 76.92 185.21 76.92 188.86"/><polygon class="cls-3" points="88.08 189.95 88.08 188.85 92.21 188.85 92.21 189.95 90.52 190.62 93.12 196.45 95.72 190.62 94.02 189.95 94.02 188.85 99.47 188.85 99.47 189.95 97.83 190.6 93.47 199.94 92.75 199.94 90.39 194.9 88.02 199.94 87.3 199.94 82.93 190.6 81.3 189.95 81.3 188.85 86.75 188.85 86.75 189.95 85.07 190.62 87.67 196.45 89.35 192.67 88.08 189.95"/><polygon class="cls-3" points="107.04 190.67 105.2 189.95 105.2 188.86 110.66 188.86 110.66 189.95 108.85 190.67 108.85 197.95 110.66 198.67 110.66 199.76 105.2 199.76 105.2 198.67 107.04 197.95 107.04 190.67"/><polygon class="cls-3" points="125.84 195.72 125.84 188.86 129.28 188.86 129.28 189.95 127.47 190.67 127.47 199.76 126.3 199.76 121.48 192.35 121.48 197.95 123.29 198.67 123.29 199.76 118.01 199.76 118.01 198.67 119.84 197.95 119.84 190.67 118.01 189.95 118.01 188.86 121.39 188.86 125.84 195.72"/><path class="cls-3" d="M1044.72,522.67v1.09h-5.45v-1.09l1.83-.72V511l-1.83-.74v-1.09h6.92a4.55,4.55,0,0,1,0,9.1h-3.27V522Zm-1.81-6.17h3.27a2.73,2.73,0,1,0,0-5.45h-3.27v5.45Z" transform="translate(-903 -324)"/><path class="cls-3" d="M1057.76,522l1.7,0.67v1.09h-5.28v-1.09l1.72-.69,4-9.29h1.26l4,9.29,1.72,0.69v1.09h-5.26v-1.09l1.68-.67-0.55-1.27h-4.47Zm2.79-6.57L1059,519h3.05Z" transform="translate(-903 -324)"/><path class="cls-3" d="M1081.16,522l1.74,0.69v1.09h-2.66l-2.62-3.66a3.2,3.2,0,0,1-.43,0h-1.46V522l1.81,0.72v1.09h-5.45v-1.09l1.83-.72v-7.28l-1.83-.72v-1.09h5.1c2.51,0,4.16,1.64,4.16,3.64a3.42,3.42,0,0,1-1.9,3.08Zm-1.61-5.48c0-1-.85-1.83-2.36-1.83h-1.46v3.64h1.46c1.5,0,2.36-.83,2.36-1.81" transform="translate(-903 -324)"/><polygon class="cls-3" points="189.48 197.95 191.29 198.67 191.29 199.76 185.84 199.76 185.84 198.67 187.67 197.95 187.67 190.67 185.84 189.95 185.84 188.86 191.29 188.86 191.29 189.95 189.48 190.67 189.48 193.98 190.64 193.5 194 188.86 196.66 188.86 196.66 189.95 194.94 190.64 192.38 194.18 195.11 197.97 196.86 198.67 196.86 199.76 194.17 199.76 190.92 195.22 189.48 195.22 189.48 197.95"/><path class="cls-3" d="M1107.42,520.12l0.76,1.94a5.3,5.3,0,0,0,1.62.29,1.9,1.9,0,0,0,2.09-1.6c0-2.2-5.78-1-5.78-4.9,0-1.85,1.92-3.16,4-3.16a5.12,5.12,0,0,1,3.47,1.29v2.53h-1.09l-0.76-1.9a4.31,4.31,0,0,0-1.55-.35,1.83,1.83,0,0,0-2.07,1.5c0,2.14,5.8,1.07,5.8,4.82,0,2-2,3.36-4.19,3.36a5.64,5.64,0,0,1-3.43-1.09v-2.73h1.09Z" transform="translate(-903 -324)"/><path class="cls-4" d="M948,518h0.63v-0.37a1.89,1.89,0,0,0-2.12-2.12,5.29,5.29,0,0,0-2.85,1l-0.77-1.36a6.39,6.39,0,0,1,3.78-1.18c2.54,0,3.88,1.32,3.88,3.84v4.44a0.38,0.38,0,0,0,.43.43h1v1.48h-2a1,1,0,0,1-1.24-1.08v-0.14a2.41,2.41,0,0,1,.08-0.65h0a3.62,3.62,0,0,1-3.28,2.1,3,3,0,0,1-3.3-3C942.23,518.24,946.38,518,948,518Zm-2.08,4.88c1.69,0,2.73-1.73,2.73-3.23v-0.41h-0.49c-0.9,0-4,0-4,1.95A1.68,1.68,0,0,0,945.95,522.9Z" transform="translate(-903 -324)"/><path class="cls-4" d="M954.81,515.66h-1.67v-1.47h1.71v-2.73h1.87v2.73h2.38v1.47h-2.38v4.66a2,2,0,0,0,2.12,2.28c0.28,0,.45,0,0.45,0v1.59a5.29,5.29,0,0,1-.69,0c-1.26,0-3.8-.39-3.8-3.72v-4.84Z" transform="translate(-903 -324)"/><polygon class="cls-5" points="72.45 103.66 59.48 103.66 59.48 108.04 63.31 108.04 63.31 125.33 48.45 103.66 39.65 103.66 39.65 108.04 43.4 108.04 43.4 130.38 39.65 130.38 39.65 134.8 52.62 134.8 52.62 130.38 48.75 130.38 48.75 113.07 63.65 134.8 68.66 134.8 68.66 108.04 72.45 108.04 72.45 103.66"/><path class="cls-5" d="M1004.06,454.55h-2.81a0.32,0.32,0,0,1-.39-0.39v-18H992v4.29h3.62v6.17c0,3.85-2.4,7.83-6.43,7.83-2.54,0-3.49-1.3-3.49-4.81V436.17h-8.84v4.29h3.62v10c0,5.84,2.56,8.8,7.61,8.8a9.47,9.47,0,0,0,7.66-3.65v0.21c0,1.89,1.16,2.93,3.27,2.93h5v-4.25Z" transform="translate(-903 -324)"/><path class="cls-5" d="M1010.94,440.85v13.66h-3.23v4.29h11.65v-4.29h-3.19v-5.15c0-4.13,1.86-8.3,6-8.3a5,5,0,0,1,1.06.11l0.68,0.17v-5.25l-0.46-.08a7.83,7.83,0,0,0-1.15-.09,7.41,7.41,0,0,0-6.26,3.65v-0.34c0-2-1.12-3.06-3.32-3.06h-5.4v4.29h3.23C1010.87,440.46,1010.94,440.53,1010.94,440.85Z" transform="translate(-903 -324)"/><path class="cls-5" d="M1030.36,450.38c0,7.75,6.13,8.59,8.76,8.59a12.19,12.19,0,0,0,1.57-.09l0.47-.07v-4.54l-0.61.07s-0.37,0-.92,0c-1.84,0-4-.76-4-4.38v-9.53h5.15v-4.29h-5.15v-5.91h-5.14v5.91h-3.7v4.29h3.62v9.92Z" transform="translate(-903 -324)"/><path class="cls-5" d="M1071,454.55h-2.8a0.32,0.32,0,0,1-.39-0.39v-18H1059v4.29h3.62v6.17c0,3.85-2.4,7.83-6.43,7.83-2.54,0-3.49-1.3-3.49-4.81V436.17h-8.84v4.29h3.62v10c0,5.84,2.56,8.8,7.61,8.8a9.48,9.48,0,0,0,7.66-3.65v0.21c0,1.89,1.16,2.93,3.27,2.93h5v-4.25Z" transform="translate(-903 -324)"/><path class="cls-5" d="M1089.28,435.91a7.42,7.42,0,0,0-6.26,3.65v-0.34c0-2-1.12-3.06-3.32-3.06h-5.4v4.29h3.23c0.31,0,.39.07,0.39,0.39v13.66h-3.23v4.29h11.65v-4.29h-3.19v-5.15c0-4.13,1.86-8.3,6-8.3a4.93,4.93,0,0,1,1.06.11l0.68,0.17v-5.25l-0.46-.08A7.8,7.8,0,0,0,1089.28,435.91Z" transform="translate(-903 -324)"/><path class="cls-5" d="M1114.29,447.93s0.13-1.06.13-1.64c0-6.46-3.87-10.63-9.87-10.63-6.66,0-11.31,4.86-11.31,11.82s5,11.82,12,11.82a13.64,13.64,0,0,0,8.75-3.12l0.32-.29-2.25-4-0.51.46a9.94,9.94,0,0,1-6.05,2.28,6.67,6.67,0,0,1-6.85-6.22h15.63Zm-9.82-7.9c2.52,0,4.27,1.8,4.56,4.64h-10.18A5.71,5.71,0,0,1,1104.47,440Z" transform="translate(-903 -324)"/><path class="cls-5" d="M965.75,490.09c0,2.11-4.52,3-6.94,3-6.29,0-10.85-4.89-10.85-11.62,0-6.46,4.36-11,10.6-11,2.73,0,6.77,1,6.77,3.07v2.89h5.06v-4.21c0-5.34-8.66-6.51-12-6.51a15.56,15.56,0,0,0-15.91,15.91,15.81,15.81,0,0,0,16.08,16.25c4.74,0,12.25-1.75,12.25-6.46V487.2h-5.06v2.89Z" transform="translate(-903 -324)"/><path class="cls-5" d="M986.21,474.23c-6.66,0-11.31,4.86-11.31,11.82s5,11.82,12,11.82a13.64,13.64,0,0,0,8.75-3.12l0.32-.29-2.25-4-0.51.46a9.94,9.94,0,0,1-6.05,2.28,6.67,6.67,0,0,1-6.85-6.22h15.63l0.06-.48s0.13-1.06.13-1.64C996.08,478.4,992.21,474.23,986.21,474.23Zm-0.08,4.38c2.52,0,4.27,1.8,4.56,4.64H980.51A5.72,5.72,0,0,1,986.13,478.6Z" transform="translate(-903 -324)"/><path class="cls-5" d="M1023.66,483c0-5.92-2.52-8.8-7.7-8.8a9.75,9.75,0,0,0-7.79,3.74v-0.3c0-1.34-.57-2.93-3.27-2.93h-5.4V479h3.19c0.31,0,.39.07,0.39,0.39v13.66h-3.36v4.29h12v-4.29h-3.4v-6.26c0-3.79,2.48-7.7,6.64-7.7,2.54,0,3.49,1.32,3.49,4.85v13.4h8.63v-4.29h-3.4V483Z" transform="translate(-903 -324)"/><path class="cls-5" d="M1040.78,492.94c-1.84,0-4-.76-4-4.38V479h5.15v-4.29h-5.15v-5.91h-5.14v5.91h-3.7V479h3.62v9.92c0,7.75,6.13,8.59,8.76,8.59a12.19,12.19,0,0,0,1.57-.09l0.47-.07v-4.54l-0.61.07S1041.33,492.94,1040.78,492.94Z" transform="translate(-903 -324)"/><path class="cls-5" d="M1055.81,474.23c-6.66,0-11.31,4.86-11.31,11.82s5,11.82,12,11.82a13.64,13.64,0,0,0,8.75-3.12l0.32-.29-2.25-4-0.51.46a9.94,9.94,0,0,1-6.05,2.28,6.67,6.67,0,0,1-6.85-6.22h15.63l0.06-.48s0.13-1.06.13-1.64C1065.67,478.4,1061.8,474.23,1055.81,474.23Zm-0.08,4.38c2.52,0,4.27,1.8,4.56,4.64H1050.1A5.72,5.72,0,0,1,1055.72,478.6Z" transform="translate(-903 -324)"/><path class="cls-5" d="M1083.94,474.48a7.42,7.42,0,0,0-6.26,3.65V477.8c0-2-1.12-3.06-3.32-3.06H1069V479h3.23c0.31,0,.39.07,0.39,0.39v13.66h-3.23v4.29H1081v-4.29h-3.19v-5.15c0-4.13,1.86-8.3,6-8.3a4.93,4.93,0,0,1,1.06.11l0.68,0.17v-5.25l-0.46-.08A7.88,7.88,0,0,0,1083.94,474.48Z" transform="translate(-903 -324)"/><path class="cls-3" d="M963.76,413.09c0-2.33-1.07-3.51-3.17-3.51a3.84,3.84,0,0,0-3,1.4V406.4h-3.51v1.71h1.44v9h-1.36v1.71H959v-1.71h-1.36v-2.52a2.76,2.76,0,0,1,2.64-3c1,0,1.41.52,1.41,1.93v5.34h3.42v-1.71h-1.34v-4Z" transform="translate(-903 -324)"/><path class="cls-3" d="M974.49,414.47s0.05-.42.05-0.65c0-2.57-1.54-4.23-3.93-4.23a4.41,4.41,0,0,0-4.51,4.71,4.58,4.58,0,0,0,4.76,4.71,5.43,5.43,0,0,0,3.49-1.24l0.13-.12-0.9-1.59-0.2.18a4,4,0,0,1-2.41.91,2.66,2.66,0,0,1-2.73-2.47h6.22Zm-3.91-3.14a1.83,1.83,0,0,1,1.81,1.85h-4.05A2.27,2.27,0,0,1,970.58,411.33Z" transform="translate(-903 -324)"/><polygon class="cls-3" points="39.58 82.4 39.58 86.09 41.49 86.09 41.49 84.23 43.86 84.23 43.86 93.04 42.35 93.04 42.35 94.8 47.5 94.8 47.5 93.04 45.99 93.04 45.99 84.23 48.37 84.23 48.37 86.09 50.28 86.09 50.28 82.4 39.58 82.4"/><path class="cls-5" d="M1041.5,405.31c3.49,1.44,7.44,3,10.12,5.8s3.28,6.32,3.42,10c0.22,6,9.53,6,9.3,0s-1.55-11.56-5.6-16-9.52-6.59-14.78-8.77c-5.53-2.29-7.94,6.71-2.47,9h0Z" transform="translate(-903 -324)"/><path class="cls-5" d="M1041.13,402.49H1041a0.93,0.93,0,0,1-.76-1.08c1.84-10.69-2.58-16.35-14.8-18.93a0.93,0.93,0,1,1,.38-1.82c13.27,2.8,18.28,9.3,16.25,21.07A0.93,0.93,0,0,1,1041.13,402.49Z" transform="translate(-903 -324)"/><path class="cls-5" d="M1044.32,405.39h-0.15a0.93,0.93,0,0,1-.77-1.07c0.13-.76-0.47-2.33-2.53-4.43-4.47-4.56-12.64-8.65-19.63-7.64a0.93,0.93,0,0,1-.27-1.84c7.61-1.1,16.43,3.28,21.23,8.18,2.23,2.27,3.31,4.42,3,6A0.93,0.93,0,0,1,1044.32,405.39Z" transform="translate(-903 -324)"/><path class="cls-2" d="M1053.89,407a2.21,2.21,0,0,1-.53-1.68l2.26-32a12.21,12.21,0,0,1,.08-1.4q0.1-.92.54-3.13a32.57,32.57,0,0,1,1.15-4.25,22.33,22.33,0,0,1,2.16-4.39,16.19,16.19,0,0,1,3.36-3.95q6.24-5.23,12.78-4.57t11.86,7a14.75,14.75,0,0,1,2.39,4.1,19,19,0,0,1,1.21,4.78q0.28,2.44.32,4.34a34.18,34.18,0,0,1-.12,3.77,34.05,34.05,0,0,1,3.73.54q1.86,0.37,4.21,1.08a19,19,0,0,1,4.5,2,14.75,14.75,0,0,1,3.61,3.08q5.32,6.35,4.82,12.9T1105.48,407q-6.27,5.25-18.21,4.19l-31.82-3.42A2.21,2.21,0,0,1,1053.89,407Z" transform="translate(-903 -324)"/><path class="cls-3" d="M1090.92,412.78q-1.81,0-3.76-.16l-31.86-3.28a3.73,3.73,0,0,1-2.57-1.35h0a3.75,3.75,0,0,1-.9-2.79l2.11-31.92a14.21,14.21,0,0,1,.09-1.51c0.07-.67.25-1.74,0.55-3.28a34.21,34.21,0,0,1,1.19-4.45,24,24,0,0,1,2.29-4.71,17.77,17.77,0,0,1,3.66-4.33c4.45-3.76,9.12-5.44,13.89-5s9.09,3,12.91,7.49a16.33,16.33,0,0,1,2.67,4.51,20.61,20.61,0,0,1,1.32,5.16c0.2,1.66.32,3.16,0.36,4.48,0,0.82,0,1.64,0,2.45,0.81,0.1,1.62.23,2.42,0.39,1.27,0.25,2.74.62,4.35,1.1a20.6,20.6,0,0,1,4.87,2.17,16.35,16.35,0,0,1,4,3.38c3.82,4.52,5.58,9.22,5.23,14s-2.78,9.1-7.23,12.86C1102.69,411.17,1097.47,412.78,1090.92,412.78ZM1055.06,406a0.7,0.7,0,0,0,.52.28l31.86,3.28c7.48,0.63,13.22-.69,17-3.92s5.87-6.77,6.15-10.75-1.24-7.9-4.52-11.79a13.3,13.3,0,0,0-3.26-2.74,17.56,17.56,0,0,0-4.14-1.85c-1.53-.45-2.9-0.8-4.08-1a32.59,32.59,0,0,0-3.57-.5l-1.52-.13,0.13-1.52a32.74,32.74,0,0,0,.1-3.6c0-1.22-.15-2.63-0.33-4.19a17.53,17.53,0,0,0-1.13-4.39,13.29,13.29,0,0,0-2.16-3.67c-3.28-3.89-6.94-6-10.87-6.43s-7.77,1-11.63,4.27a14.71,14.71,0,0,0-3,3.59,20.83,20.83,0,0,0-2,4.1,31.11,31.11,0,0,0-1.08,4.05c-0.28,1.42-.45,2.43-0.5,3a10.49,10.49,0,0,0-.07,1.21v0.14l-2.11,32a0.72,0.72,0,0,0,.18.59h0Z" transform="translate(-903 -324)"/></svg>