<?xml version="1.0" encoding="iso-8859-1"?>
<!-- Generator: Adobe Illustrator 18.1.1, SVG Export Plug-In . SVG Version: 6.00 Build 0)  -->
<svg version="1.1" id="Layer_1" xmlns="http://www.w3.org/2000/svg" xmlns:xlink="http://www.w3.org/1999/xlink" x="0px" y="0px"
	 viewBox="0 0 182 116.874" style="enable-background:new 0 0 182 116.874;" xml:space="preserve">
<g>
	<path style="fill:#DC2526;" d="M181.792,68.013c0.004-0.176,0.125-0.639-0.033-0.777c-0.223-0.184-0.048-0.19-0.283-0.407
		c-0.317-0.281-0.529-0.373-0.958-0.378c-1.016-0.014-2.019,0.201-3.026,0.286c-1.734,0.149-3.471,0.229-5.211,0.225
		c-0.471-0.004-1.168-0.09-1.605,0.126c-0.212,0.104-0.632-0.048-0.886-0.091c-0.424-0.07-0.848-0.117-1.273-0.133
		c-1.172-0.056-2.348-0.062-3.521-0.094c-0.779,0.23-1.682-0.18-2.42,0.148c-0.317,0.139-0.781,0.098-1.116,0.118
		c-0.578,0.028-1.155,0.052-1.731,0.067c-1.319,0.037-2.641,0.13-3.962,0.123c-2.249-0.015-4.499-0.042-6.749,0.022
		c-1.531,0.039-3.011,0.109-4.52-0.156c-0.249-0.043-2.617-0.536-2.617-0.075c-1.777,0-3.554,0.132-5.33,0.121
		c-1.144-0.003-2.291-0.007-3.432-0.061c-0.174-0.007-0.352-0.009-0.521-0.037c-0.21-0.033-0.433,0.095-0.674,0.062
		c-0.446-0.062-0.871-0.086-1.322-0.086c-0.154,0-0.526-0.271-0.609-0.368c0.091,0.106-0.627,0.122-0.721,0.122
		c-0.368,0-0.734,0.003-1.102,0.007c-0.86,0.013-1.721,0.048-2.581,0.081c-1.796,0.065-3.596,0.126-5.392,0.177
		c-0.837,0.022-1.7-0.035-2.533,0.027c-0.427,0.037-0.849,0.176-1.242,0.02c-0.535-0.211-1.284-0.12-1.845-0.121
		c-1.687-0.013-3.378,0.108-5.064,0.066c-0.65-0.012-1.384,0.445-2.021,0.192c-0.455-0.181-0.643,0.313-1.535-0.032
		c-0.891-0.344-3.883-0.291-3.883-0.291c-0.129-0.025-1.036-0.277-1.036-0.004c-0.657,0.1-1.288-0.151-1.942-0.078
		c-0.499,0.051-0.988,0.078-1.49,0.076c-0.834-0.002-1.717-0.066-2.54,0.075c-0.677,0.115-1.419-0.202-2.121-0.018
		c-0.108,0.031-0.234,0.08-0.291,0.191c-0.256-0.029-0.513-0.041-0.769-0.048c-0.487-0.017-0.972,0-1.457,0.019
		c-0.928,0.033-1.885-0.074-2.804,0.029c0,0.422-0.452,0.067-0.632,0.011c-0.094-0.03-0.25,0.051-0.352,0.057
		c-0.521,0.056-1.049,0.052-1.572,0.056c-0.694,0.002-1.247-0.215-1.913-0.403c-0.862-0.241-1.784,0.063-2.64,0.197
		c-1.764,0.269-3.612-0.206-5.359,0.168c-2.598,0.555-5.371,0.04-8.012,0.226c-0.092,0.005-0.843,0.016-0.843,0.18
		c-0.72,0.118-1.539,0.062-2.269,0.058c-0.54,0-1.115,0.019-1.643-0.115c-0.226-0.058-0.229-0.152-0.437-0.149
		c-0.398,0.001-0.456,0.025-0.807,0.255c-0.262,0.176-0.832-0.035-1.128-0.037c-0.44-0.004-0.882,0.047-1.318,0.083
		c-0.429,0.035-0.669-0.077-1.082-0.121c-0.211-0.022-2.574-0.172-2.574,0.027c-4.072,0-8.175,0.146-12.244-0.096
		c-1.126-0.063-2.249-0.169-3.37-0.312c-0.444-0.058-0.878-0.142-1.324-0.054c-0.353,0.075-0.688,0.204-1.044,0.255
		c-0.877,0.117-1.778-0.036-2.656-0.041c-0.506,0-1.013-0.003-1.518-0.018c-1.361-0.045-2.705-0.103-4.076-0.103
		c-1.972,0-3.95,0.042-5.921-0.031c-4.403-0.164-8.793-0.216-13.202-0.216c-2.144,0-4.33,0.137-6.469-0.019
		c-0.306-0.024-0.703-0.182-1.005-0.104c-0.255,0.069-0.15,0.117-0.404-0.059c-0.364-0.25-1.026-0.171-1.026,0.488
		c0,1.15,0.058,2.301,0.123,3.446c0.028,0.521,0.101,1.067,0.05,1.588c-0.039,0.396-0.138,0.784-0.05,1.183
		c0.099,0.423-0.076,0.819-0.1,1.228c-0.033,0.526,0.061,1.128-0.041,1.648c-0.127,0.609-0.579,1.121-0.599,1.826
		c-0.03,1.187,0.18,2.369,0.207,3.55c0.056,2.329,0.154,4.633,0.154,6.961c-0.001,1.131,0.119,2.27,0.071,3.402
		c-0.035,0.795-0.043,1.549,0.046,2.339c0.123,1.099-0.269,2.079-0.402,3.191c-0.076,0.606-0.173,1.222-0.194,1.834
		c-0.022,0.712-0.189,1.8,0.264,2.38c0.24,0.311-0.034,0.554,0.284,0.824c0.067,0.057,0.039,0.209,0.09,0.222
		c0.802,0.212,1.692-0.059,2.516,0.146c0.955,0.234,2.099-0.086,3.082-0.08c1.025,0.006,2.046,0.067,3.068,0.062
		c1.079-0.002,2.148,0.164,3.223,0.221c0.737,0.038,1.444-0.09,2.171-0.1c0.952-0.001,1.902,0.131,2.85,0.146
		c4.438,0.106,8.913-0.008,13.351-0.122c0.926-0.024,1.857-0.053,2.782-0.108c0.352-0.02,0.873-0.183,1.191-0.113
		c1.299,0.279,2.665-0.163,3.965-0.077c0.931,0.061,1.896-0.108,2.853-0.131c1.918-0.051,3.841-0.056,5.758-0.138
		c0.475-0.02,1.21-0.234,1.646-0.153c0.828,0.146,1.746,0.055,2.585,0.037c1.045-0.021,2.093-0.049,3.137-0.121
		c0.582-0.041,1.121,0.005,1.713,0.009c0.978,0.013,1.982,0.029,2.959-0.066c0.624-0.06,1.223,0.011,1.85,0.057
		c0.981,0.074,1.962,0.027,2.941,0.084c1.191,0.069,2.339,0.121,3.521,0.052c1.049-0.062,2.104,0.457,3.154,0.45
		c2.98-0.025,5.961,0.007,8.938-0.062c0.414-0.011,0.767,0.059,1.108-0.068c0.226-0.085,0.484-0.094,0.72-0.094
		c0.534,0,1.009,0.075,1.573,0.029c1.047-0.08,2.004,0.051,3.044,0.101c0.946,0.042,1.877-0.13,2.819-0.162
		c0.49-0.015,0.758-0.174,1.254-0.157c0.259,0.004,0.519,0.011,0.779,0.015c0.188,0.003,0.127-0.239,0.448-0.114
		c0.226,0.088,0.61,0.005,0.759,0.176c0.169,0.204,0.431,0.302,0.717,0.288c0.506-0.025,1.017-0.017,1.522-0.079
		c0.864-0.109,1.806-0.009,2.687-0.017c1.295-0.01,2.589-0.118,3.887-0.136c0.819-0.016,1.585,0.1,2.391,0.063
		c0.91-0.044,1.822-0.046,2.735-0.049c1.86-0.011,3.761-0.088,5.62,0.071c1.364,0.12,2.852-0.053,4.227-0.135
		c2.031-0.126,4.053-0.08,6.088-0.136c1.3-0.037,2.579,0.024,3.87-0.038c1.131-0.057,2.178,0.109,3.294,0.048
		c2.352-0.122,4.72-0.108,7.076-0.121c0.818-0.001,1.655-0.046,2.473,0.029c0.333,0.03,0.747-0.131,1.114-0.134
		c0.67,0,1.352,0.091,2.02,0.023c0.536-0.061,1.352-0.328,1.852-0.018c0.544,0.337,1.445,0.11,2.094,0.08
		c0.97-0.047,1.948,0.011,2.923,0.013c0.48,0.002,0.967,0.009,1.447-0.022c0.352-0.022,0.617,0.088,0.99,0.006
		c0.359-0.077,0.647-0.174,0.895,0.082c0.18,0.186,0.477-0.248,0.713-0.179c0.653,0.201,1.249,0.205,1.93,0.145
		c0.988-0.081,2.012,0.191,3.016,0.078c0.908-0.104,1.917-0.086,2.878-0.078c0.719,0.004,1.575-0.39,2.098,0.182
		c0.417,0.453,1.706,0.007,2.196-0.061c1.075-0.144,2.155,0.25,3.234,0.152c1.769-0.16,3.564-0.188,5.338-0.234
		c0.865-0.022,1.771-0.094,2.633,0.03c0.34,0.044,0.67,0.122,1.028,0.173c0.349,0.047,0.714,0.082,1.057-0.03
		c0.181-0.059,0.348-0.151,0.492-0.278c0.212-0.19,0.273-0.147,0.551-0.162c1.53-0.084,2.112-1.844,1.998-3.16
		c-0.084-1.002-0.2-1.922-0.146-2.922c0.133-2.349,0.365-4.693,0.388-7.048c0.003-0.327,0.149-1.599-0.204-1.82
		c-0.176-0.108-0.149-1.171-0.16-1.397c-0.008-0.193-0.043-0.467,0.049-0.646c0.141-0.274,0.082-0.749,0.104-1.093
		c0.045-0.842,0.139-1.687,0.174-2.525c0.014-0.263-0.094-0.511-0.09-0.819c0.007-0.44,0.029-0.886,0.076-1.329
		c0.057-0.556,0.139-0.983,0.095-1.524c-0.043-0.558-0.065-1.127-0.089-1.69c-0.057-1.515,0.198-2.998,0.233-4.507
		c0.019-1.048-0.073-2.089-0.073-3.129C182.196,68.507,181.782,68.341,181.792,68.013 M179.831,78.212
		c-0.02,0.45-0.087,0.895-0.059,1.344c0.024,0.323,0.221,1.395-0.083,1.619c-0.023,0.014-0.193,0.449-0.241,0.557
		c-0.076,0.175-0.18,0.455-0.158,0.654c0.079,0.857,0.252,1.652,0.243,2.535c-0.007,0.696-0.037,1.391-0.061,2.088
		c-0.044,1.206-0.087,2.41-0.215,3.604c-0.012,0.105-0.054,0.927-0.218,0.927c-0.11,1.118-0.107,2.205-0.308,3.305
		c-0.15,0.825-0.128,1.64-0.105,2.477c0.01,0.455-0.104,0.956-0.042,1.38c0.076,0.526,0.343,1.437-0.311,1.643
		c-0.496,0.154-1.052,0.149-1.564,0.149c-0.453-0.004-1.019,0.027-1.448-0.154c-0.54-0.232-1.209,0.058-1.795,0.058h-5.403
		c-2.197,0-4.395-0.208-6.595-0.238c-2.098-0.026-4.198,0.008-6.295-0.009c-2.075-0.017-4.149-0.104-6.228-0.136
		c-0.687-0.01-1.432-0.098-2.116,0c-0.346,0.051-0.775-0.092-1.134-0.098c-0.432-0.004-0.895,0.234-1.211-0.138
		c0.085,0.099-0.538,0.122-0.613,0.122h-0.785c-0.534-0.006-1.066-0.024-1.598-0.039c-1.177-0.036-2.348-0.014-3.525,0
		c-2.193,0.03-4.387,0.039-6.583,0.039c-1.021,0-2.089-0.07-3.103,0.082c-0.36,0.056-0.732,0.038-1.103,0.031
		c-0.252-0.002-0.5-0.004-0.75-0.018c-0.186-0.013-0.291-0.156-0.482-0.172c-0.364-0.023-0.724,0.15-1.064,0.258
		c-0.336,0.107-0.586,0.044-0.931,0.029c-0.401-0.025-0.804,0.04-1.207,0.04c0,0.316-0.485,0.081-0.619,0.038
		c-0.345-0.107-0.948,0-1.333,0.004c-0.578,0.009-1.177,0.079-1.791,0.079c-2.074,0-4.153-0.074-6.225-0.122
		c-1.765-0.043-3.533-0.097-5.27-0.025c-1.073,0.04-2.146-0.084-3.224-0.071c-1.019,0.013-2.037,0.036-3.056,0.085
		c-0.795,0.041-1.578,0.255-2.377,0.307c-1.449,0.092-2.975-0.092-4.45,0.013c-1.229,0.089-2.406-0.012-3.621,0.014
		c-1.063,0.021-2.13-0.023-3.192-0.053c-0.89-0.026-1.791-0.33-2.671-0.099c-0.28,0.073-0.444,0.22-0.74,0.201
		c-0.312-0.023-0.624-0.076-0.929-0.127c-0.777-0.13-1.545-0.139-2.325-0.184c-1.99-0.118-4.001,0.221-5.982-0.068
		c-0.919-0.133-3.608,0.171-3.617,0.245c0.012-0.1-5.147-0.322-5.613-0.334c-2.113-0.057-4.229-0.391-6.341-0.399
		c-0.459,0-1.112,0.648-1.544,0.454c-0.175-0.078-0.312-0.312-0.511-0.325c-0.366-0.024-1.014,0.14-1.314,0.362
		c-0.231,0.169-1.071-0.396-1.382-0.374c-0.207,0.009-0.41,0.017-0.615,0.039c-0.552,0.062-1.105,0.138-1.654,0.233
		c-1.588,0.274-3.285,0.27-4.904,0.397c-1.467,0.117-3.064-0.133-4.51,0.181c-0.936,0.204-2.083,0.016-3.038-0.002
		c-1.042-0.02-2.088-0.046-3.131-0.064c-1.988-0.035-3.976-0.083-5.965-0.146c-0.494-0.013-0.981-0.014-1.47-0.042
		c-0.275-0.013-0.819,0.117-1.045,0.009c-0.359-0.173-0.82-0.083-1.19-0.021c-0.817,0.137-1.72,0.002-2.539-0.033
		c-1.12-0.049-2.24-0.116-3.362-0.099c-0.919,0.016-1.777,0.232-2.686,0.371c-0.087,0.013-0.918,0.133-0.903-0.003
		c0.013-0.128-0.576-0.048-0.651-0.007c-0.431,0.242-1.216-0.061-1.723-0.059c-0.497,0-1.044-0.171-1.518-0.119
		c-0.324,0.041-1.362,0.448-1.544,0.154c-0.138-0.229-0.651-0.084-0.849-0.057c-0.419,0.061-0.853,0.022-1.274,0.022H7.111
		c-0.55,0-1.04,0.104-1.599,0.082c-0.5-0.016-1.003-0.082-1.503-0.082c0,0.156-0.844,0.066-0.897-0.268
		c-0.091-0.543-0.063-1.125-0.066-1.673c-0.003-0.564,0.02-1.124,0.003-1.685c-0.012-0.29-0.024-0.581-0.08-0.866
		c-0.031-0.15-0.145-0.286-0.137-0.438c0.023-0.35,0.13-0.689,0.188-1.031c0.079-0.447,0.028-0.931,0.032-1.386
		c0.011-1.185,0.033-2.368,0.062-3.552c0.058-2.464,0.141-4.933,0.141-7.396c0-1.967-0.293-3.854-0.136-5.83
		c0.09-1.092,0.14-2.19,0.281-3.271c0.114-0.892,0.089-1.766,0.134-2.684c0.013-0.279-0.016-1.206,0.307-1.343
		c0.159-0.066,0.592,0.089,0.767,0.108c2.083,0.183,4.179,0.114,6.261,0.217c1.08,0.056,2.292,0.211,3.366,0.041
		c2.081-0.334,4.281,0.066,6.375,0.16c2.187,0.104,4.381,0.179,6.573,0.208c2.057,0.02,4.202,0.384,6.247,0.137
		c0.589-0.073,1.171-0.19,1.755-0.305c0.211-0.04,0.92-0.291,1.079-0.172c0.185,0.127,0.537,0.101,0.74,0.113
		c1.117,0.079,2.24,0.079,3.357,0.079c0.89,0.005,1.788-0.04,2.677,0c1.055,0.053,2.095,0.281,3.154,0.281
		c0.473,0,0.943,0.035,1.411,0.068c0.375,0.024,1.1-0.064,1.309,0.179c-0.061-0.068,1.217-0.127,1.389-0.127
		c0.439,0,0.15-0.009,0.33,0.046c0.212,0.064,0.447,0.064,0.663,0.073c0.91,0.05,1.822,0.04,2.729,0.04
		c1.816-0.001,3.705-0.17,5.51,0.045c1.719,0.205,3.49-0.12,5.23-0.046c1.095,0.043,2.248,0.255,3.364,0.095
		c0-0.187,0.986-0.037,1.135-0.131c0.234-0.15,0.53-0.047,0.85-0.086c0.314-0.036,0.605-0.183,0.904-0.286
		c0.262-0.914,0.756,0.25,1.311,0.15c0.057-0.011-0.047-0.237,0.154-0.124c0.143,0.082,0.359,0.077,0.519,0.093
		c0.363,0.029,0.655-0.097,1.004-0.097c0.425,0,0.936,0.112,1.346-0.03c0.193-0.069,0.165-0.136,0.422-0.052
		c0.16,0.051,0.41,0.173,0.578,0.091c0.263-0.129-0.214-0.151,0.319-0.151h0.722c0.18,0,0.342,0,0.521-0.018
		c0.484-0.053,1.034-0.217,1.52-0.166c0.27,0.027,0.374,0.443,0.578,0.425c0.204-0.019,0.448-0.078,0.645-0.003
		c0.065,0.021,0.101,0.066,0.106,0.131c0.182,0,0.366,0,0.549-0.006c0.275-0.005,0.554-0.005,0.83-0.009
		c0.547-0.009,1.099-0.019,1.651-0.023c1.102-0.021,2.204-0.035,3.307-0.053c2.295-0.033,4.591-0.107,6.887-0.159
		c2.293-0.051,4.592,0.036,6.883-0.054c2.254-0.09,4.506-0.198,6.764-0.278c1.13-0.037,2.236-0.096,3.36-0.187
		c0.515-0.041,0.989,0.228,1.479,0.104c0.513-0.128,1.158-0.065,1.678-0.003c0.263,0.037,0.561,0.123,0.793-0.063
		c0.242-0.19,0.126-0.265,0.484-0.265h0.781c1.061,0,2.164-0.117,3.252-0.056c1.441,0.082,2.888,0.072,4.33,0.143
		c1.019,0.048,2.025-0.124,3.037-0.099c0.56,0.018,0.859,0.436,1.4,0.407c0.602-0.031,1.19-0.152,1.783-0.228
		c0.923-0.111,1.89-0.063,2.815-0.071c2.877-0.02,5.735-0.007,8.599,0.136c0.335,0.016,0.674-0.064,1.048-0.03
		c0.49,0.045,0.981,0.141,1.473,0.173c0.123,0.005,0.214-0.146,0.376-0.173c0.249-0.043,0.504-0.039,0.754-0.043
		c0.212-0.006,0.449,0.008,0.656-0.06c0.256-0.083,0.455-0.004,0.768,0.026c0.947,0.095,1.892-0.181,2.836-0.07
		c0.396,0.048,0.795,0.119,1.191,0.112c0.359-0.004,0.665-0.195,1.016-0.033c0.217,0.104,0.412,0.27,0.645,0.338
		c0.281,0.086,0.066-0.108,0.271-0.064c0.414,0.089,0.881-0.045,1.307-0.031c0.898,0.034,1.763-0.092,2.658-0.122
		c0.392-0.018,0.764-0.105,1.197-0.062c0.564,0.054,1.128,0.141,1.687,0.22c0.567,0.084,1.021,0.102,1.572-0.127
		c0.526-0.212,1.034-0.211,1.576-0.226c0.309-0.009,0.623-0.002,0.93,0.038c0.174,0.023,0.261-0.078,0.468-0.058
		c0.262,0.025,0.552,0.015,0.717,0.214c0.216,0.255,0.592,0.262,0.891,0.247c0.906-0.052,1.785-0.196,2.701-0.223
		c1.043-0.024,2.089-0.048,3.131-0.048c0.966,0,1.93-0.036,2.892-0.079c0.204-0.01,1.051-0.14,1.145,0.021
		c0.08,0.144,0.373,0.123,0.502,0.124c0.476,0.008,0.924,0.032,1.357,0.086c0.289,0.04,0.527,0.215,0.807,0.283
		c0.335,0.075,0.679,0.007,1.014-0.028c0.752-0.071,0.475,0.988,0.402,1.492c-0.094,0.675-0.219,1.339-0.076,2.005
		c0.128,0.592,0.115,1.19,0.202,1.777c0.04,0.273,0.217,0.456,0.303,0.703c0.107,0.315-0.045,0.621-0.065,0.943
		C179.734,77.202,179.856,77.666,179.831,78.212"/>
	<polygon style="fill:#1A1819;" points="22.959,80.611 21.751,80.611 20.932,78.611 17.919,78.611 17.919,90.661 19.944,91.458 
		19.944,92.667 13.917,92.667 13.917,91.458 15.918,90.661 15.918,78.611 12.905,78.611 12.11,80.611 10.904,80.611 10.904,76.582 
		22.959,76.582 	"/>
	<polygon style="fill:#1A1819;" points="35.3,81.816 35.3,80.609 39.86,80.609 39.86,81.816 37.999,82.561 40.868,88.999 
		43.739,82.561 41.858,81.816 41.858,80.609 47.883,80.609 47.883,81.816 46.075,82.538 41.254,92.856 40.459,92.856 37.856,87.287 
		35.228,92.856 34.433,92.856 29.611,82.538 27.804,81.816 27.804,80.609 33.829,80.609 33.829,81.816 31.976,82.561 34.845,88.999 
		36.701,84.83 	"/>
	<polygon style="fill:#1A1819;" points="56.25,82.613 54.224,81.816 54.224,80.611 60.251,80.611 60.251,81.816 58.251,82.613 
		58.251,90.661 60.251,91.458 60.251,92.666 54.224,92.666 54.224,91.458 56.25,90.661 	"/>
	<polygon style="fill:#1A1819;" points="77.031,88.203 77.031,80.611 80.836,80.611 80.836,81.816 78.84,82.613 78.84,92.667 
		77.536,92.667 72.209,84.469 72.209,90.664 74.21,91.458 74.21,92.667 68.376,92.667 68.376,91.458 70.402,90.664 70.402,82.613 
		68.376,81.816 68.376,80.611 72.114,80.611 	"/>
	<path style="fill:#1A1819;" d="M94.58,91.458v1.209h-6.028v-1.209l2.027-0.794V78.611l-2.027-0.822v-1.204h7.644
		c2.773,0,5.016,2.264,5.016,5.039c0,2.772-2.242,5.014-5.016,5.014H92.58v4.026L94.58,91.458z M92.58,84.637h3.615
		c1.663,0,3.014-1.35,3.014-3.013c0-1.688-1.351-3.013-3.014-3.013H92.58V84.637z"/>
	<path style="fill:#1A1819;" d="M108.995,90.712l1.883,0.744v1.21h-5.836v-1.21l1.906-0.767l4.435-10.273h1.397l4.413,10.273
		l1.905,0.767v1.21h-5.812v-1.21l1.856-0.744l-0.603-1.4h-4.941L108.995,90.712z M112.082,83.454l-1.688,3.982h3.376L112.082,83.454
		z"/>
	<path style="fill:#1A1819;" d="M134.864,90.69l1.928,0.768v1.209h-2.941l-2.893-4.05c-0.168,0.023-0.337,0.023-0.48,0.023h-1.617
		v2.024l2.001,0.794v1.209h-6.025v-1.209l2.022-0.794v-8.051l-2.022-0.796v-1.207h5.642c2.771,0,4.603,1.808,4.603,4.028
		c0,1.448-0.77,2.697-2.097,3.401L134.864,90.69z M133.08,84.637c0-1.107-0.941-2.024-2.603-2.024h-1.617v4.025h1.617
		C132.138,86.638,133.08,85.722,133.08,84.637"/>
	<polygon style="fill:#1A1819;" points="147.374,90.664 149.376,91.456 149.376,92.667 143.348,92.667 143.348,91.456 
		145.374,90.664 145.374,82.613 143.348,81.816 143.348,80.611 149.376,80.611 149.376,81.816 147.374,82.613 147.374,86.274 
		148.653,85.745 152.365,80.611 155.305,80.611 155.305,81.816 153.401,82.587 150.58,86.49 153.595,90.689 155.523,91.456 
		155.523,92.667 152.559,92.667 148.966,87.65 147.374,87.65 	"/>
	<path style="fill:#1A1819;" d="M163.888,88.64l0.843,2.143c0.627,0.195,1.181,0.317,1.785,0.317c1.084,0,2.314-0.629,2.314-1.765
		c0-2.434-6.392-1.084-6.392-5.421c0-2.047,2.123-3.497,4.462-3.497c1.518,0,2.581,0.436,3.832,1.422v2.798h-1.204l-0.844-2.099
		c-0.579-0.217-1.108-0.385-1.712-0.385c-1.494,0-2.291,0.918-2.291,1.663c0,2.363,6.413,1.183,6.413,5.325
		c0,2.193-2.264,3.714-4.627,3.714c-1.494,0-2.579-0.384-3.788-1.203V88.64H163.888z"/>
	<polygon style="fill:#1A1819;" points="24.861,111.251 25.568,111.251 27.799,114.443 30.037,111.251 30.743,111.251 
		30.743,116.703 29.893,116.703 29.893,112.781 27.799,115.816 25.71,112.781 25.71,116.703 24.861,116.703 	"/>
	<path style="fill:#1A1819;" d="M33.121,113.982c0-1.617,1.334-2.872,3.332-2.872c2.014,0,3.348,1.239,3.348,2.872
		c0,1.622-1.334,2.89-3.348,2.89C34.455,116.872,33.121,115.593,33.121,113.982 M38.924,113.982c0-1.161-0.968-2.09-2.472-2.09
		c-1.489,0-2.455,0.916-2.455,2.09c0,1.176,0.965,2.091,2.455,2.091C37.97,116.074,38.924,115.148,38.924,113.982"/>
	<polygon style="fill:#1A1819;" points="42.177,111.251 42.624,111.251 46.085,115.082 46.085,111.251 46.923,111.251 
		46.923,116.703 46.477,116.703 43.013,112.885 43.013,116.703 42.177,116.703 	"/>
	<polygon style="fill:#1A1819;" points="51.066,112.012 48.765,112.012 48.765,111.251 54.215,111.251 54.215,112.012 
		51.916,112.012 51.916,116.703 51.066,116.703 	"/>
	<polygon style="fill:#1A1819;" points="56.044,111.251 61.156,111.251 61.156,112.049 56.895,112.049 56.895,113.407 
		59.692,113.407 59.692,114.194 56.895,114.194 56.895,115.917 61.39,115.917 61.39,116.703 56.044,116.703 	"/>
	<path style="fill:#1A1819;" d="M63.534,115.29c0.785,0.526,1.726,0.799,2.497,0.799c1.019,0,1.62-0.472,1.62-1.061
		c0-0.641-0.562-0.916-1.7-0.939c-1.671-0.027-2.6-0.263-2.6-1.423c0-0.902,0.837-1.556,2.247-1.556c0.941,0,1.817,0.26,2.641,0.782
		l-0.43,0.706c-0.709-0.469-1.529-0.717-2.223-0.717c-0.863,0-1.373,0.338-1.373,0.785c0,0.52,0.562,0.664,1.699,0.664
		c1.75,0,2.627,0.603,2.627,1.753c0,0.969-0.903,1.792-2.417,1.792c-1.036,0-2.119-0.304-3.007-0.865L63.534,115.29z"/>
	<path style="fill:#1A1819;" d="M70.983,115.29c0.786,0.526,1.728,0.799,2.496,0.799c1.018,0,1.622-0.472,1.622-1.061
		c0-0.641-0.562-0.916-1.7-0.939c-1.673-0.027-2.601-0.263-2.601-1.423c0-0.902,0.836-1.556,2.247-1.556
		c0.941,0,1.818,0.26,2.642,0.782l-0.431,0.706c-0.707-0.469-1.53-0.717-2.222-0.717c-0.863,0-1.374,0.338-1.374,0.785
		c0,0.52,0.561,0.664,1.701,0.664c1.751,0,2.626,0.603,2.626,1.753c0,0.969-0.901,1.792-2.417,1.792
		c-1.033,0-2.119-0.304-3.008-0.865L70.983,115.29z"/>
	<path style="fill:#1A1819;" d="M78.014,113.982c0-1.617,1.334-2.872,3.336-2.872c2.012,0,3.344,1.239,3.344,2.872
		c0,1.622-1.332,2.89-3.344,2.89C79.348,116.872,78.014,115.593,78.014,113.982 M83.819,113.982c0-1.161-0.968-2.09-2.469-2.09
		c-1.492,0-2.459,0.916-2.459,2.09c0,1.176,0.967,2.091,2.459,2.091C82.864,116.074,83.819,115.148,83.819,113.982"/>
	<path style="fill:#1A1819;" d="M87.923,116.703h-0.85v-5.438h3.75c1.111,0,1.776,0.562,1.776,1.516
		c0,0.759-0.522,1.398-1.346,1.528l1.516,2.395h-0.928l-1.542-2.38h-2.377V116.703z M90.824,113.526c0.587,0,0.901-0.26,0.901-0.745
		c0-0.471-0.314-0.732-0.901-0.732h-2.9v1.477H90.824z"/>
	<rect x="95.137" y="111.24" style="fill:#1A1819;" width="0.863" height="5.477"/>
	<path style="fill:#1A1819;" d="M104.141,115.29c0.785,0.526,1.725,0.799,2.497,0.799c1.02,0,1.62-0.472,1.62-1.061
		c0-0.641-0.562-0.916-1.698-0.939c-1.673-0.027-2.601-0.263-2.601-1.423c0-0.902,0.836-1.556,2.247-1.556
		c0.942,0,1.817,0.26,2.64,0.782l-0.43,0.706c-0.705-0.469-1.53-0.717-2.223-0.717c-0.862,0-1.373,0.338-1.373,0.785
		c0,0.52,0.563,0.664,1.699,0.664c1.752,0,2.627,0.603,2.627,1.753c0,0.969-0.902,1.792-2.419,1.792
		c-1.03,0-2.115-0.304-3.005-0.865L104.141,115.29z"/>
	<path style="fill:#1A1819;" d="M114.465,116.874c-1.934,0-3.292-1.229-3.292-2.876c0-1.649,1.358-2.888,3.292-2.888
		c1.203,0,2.21,0.468,2.799,1.28l-0.681,0.471c-0.442-0.613-1.2-0.969-2.118-0.969c-1.413,0-2.416,0.902-2.416,2.09
		c0,1.194,1.021,2.091,2.416,2.091c0.98,0,1.702-0.38,2.262-1.173l0.68,0.469C116.793,116.335,115.762,116.874,114.465,116.874"/>
	<polygon style="fill:#1A1819;" points="120.675,116.703 119.825,116.703 119.825,111.251 120.675,111.251 120.675,113.369 
		124.502,113.369 124.502,111.251 125.355,111.251 125.355,116.703 124.502,116.703 124.502,114.166 120.675,114.166 	"/>
	<path style="fill:#1A1819;" d="M127.718,113.982c0-1.617,1.334-2.872,3.334-2.872c2.013,0,3.346,1.239,3.346,2.872
		c0,1.622-1.333,2.89-3.346,2.89C129.053,116.872,127.718,115.593,127.718,113.982 M133.524,113.982c0-1.161-0.969-2.09-2.471-2.09
		c-1.49,0-2.456,0.916-2.456,2.09c0,1.176,0.967,2.091,2.456,2.091C132.569,116.074,133.524,115.148,133.524,113.982"/>
	<path style="fill:#1A1819;" d="M136.293,113.982c0-1.617,1.332-2.872,3.332-2.872c2.014,0,3.346,1.239,3.346,2.872
		c0,1.622-1.332,2.89-3.346,2.89C137.626,116.872,136.293,115.593,136.293,113.982 M142.096,113.982c0-1.161-0.967-2.09-2.471-2.09
		c-1.489,0-2.457,0.916-2.457,2.09c0,1.176,0.968,2.091,2.457,2.091C141.141,116.074,142.096,115.148,142.096,113.982"/>
	<polygon style="fill:#1A1819;" points="145.337,111.251 146.187,111.251 146.187,115.917 150.237,115.917 150.237,116.703 
		145.337,116.703 	"/>
	<path style="fill:#1A1819;" d="M152.132,115.29c0.784,0.526,1.726,0.799,2.497,0.799c1.021,0,1.621-0.472,1.621-1.061
		c0-0.641-0.56-0.916-1.7-0.939c-1.672-0.027-2.601-0.263-2.601-1.423c0-0.902,0.837-1.556,2.247-1.556
		c0.942,0,1.817,0.26,2.642,0.782l-0.431,0.706c-0.707-0.469-1.53-0.717-2.222-0.717c-0.864,0-1.372,0.338-1.372,0.785
		c0,0.52,0.562,0.664,1.698,0.664c1.752,0,2.627,0.603,2.627,1.753c0,0.969-0.901,1.792-2.417,1.792
		c-1.032,0-2.119-0.304-3.006-0.865L152.132,115.29z"/>
	<path style="fill:#52B848;" d="M75.834,42.058c-1.967,0.15-3.177,1.219-5.369,0.772c-1.663-0.336-3.414-2.486-3.895-4.246
		c-0.4-1.457,0.584-3.543-0.261-4.808c-1.015-1.528-3.557-0.672-4.716-1.869c-3.119-3.217,1.578-6.023,2.21-8.826
		c0.903-3.993-6.621-10.047-1.21-13.081c1.174-0.71,6.148,1.296,6.486,1.185c2.327-0.757,1.268-3.894,2.211-6.041
		c1.271-2.89,4.303-4.375,7.232-3.636c2.723,0.688,4.785,6.38,7.22,5.773c1.294-0.324,2.149-2.661,3.12-3.558
		c1.667-1.542,4.441-2.27,5.537-0.849c4.519,5.38,4.003,3.327,6.188,1.12c1.738-1.758,2.588-4.354,5.163-3.775
		c2.96,0.668,3.438,3.229,4.155,5.849c0.932,3.393,4.772,2.405,7.707,3.734c2.372,1.071,3.611,1.271,3.316,4.859
		c-0.235,2.892-2.782,3.902-3.061,6.694c-0.3,3.02,2.048,3.809,3.134,5.973c1.677,3.329,0.275,4.074-1.543,6.398
		c-2.641,3.368-1.582,11.326-8.375,9.956c-2.998-0.604-2.513-0.98-4.03-2.863c-1.683-2.092-2.246,1.758-5.464,1.986
		c-1.457,0.101-3.573-3.08-5.068-3.752c-0.854-0.387-2.448-1.146-2.957-1.346c-1.235-0.48-0.69-0.898-2.297,0
		c-1.843,1.036-2.986,0.715-4.496,2.045c-0.324,0.289-2.33,1.238-2.693,1.278c-1.672,0.17-1.982,2.554-3.328,2.401L75.834,42.058z"
		/>
	<rect x="79.374" y="12.175" style="fill:#1A1819;" width="1.689" height="47.022"/>
	<polygon style="fill:#1A1819;" points="80.816,33.628 80.816,31.551 91.52,21.442 91.52,23.517 	"/>
	<polygon style="fill:#1A1819;" points="80.518,44.038 80.518,41.962 91.885,32.449 91.885,34.525 	"/>
	<polygon style="fill:#1A1819;" points="79.452,33.751 79.452,31.675 68.623,21.442 68.623,23.515 	"/>
	<polygon style="fill:#1A1819;" points="79.625,44.038 79.625,41.962 70.719,34.248 70.719,36.323 	"/>
	<rect x="102.275" y="12.175" style="fill:#1A1819;" width="1.694" height="47.022"/>
	<polygon style="fill:#1A1819;" points="103.717,33.628 103.717,31.551 114.424,21.442 114.424,23.517 	"/>
	<polygon style="fill:#1A1819;" points="103.419,44.038 103.419,41.962 112.328,34.248 112.328,36.323 	"/>
	<polygon style="fill:#1A1819;" points="102.417,33.813 102.417,31.735 91.528,21.442 91.528,23.517 	"/>
	<polygon style="fill:#1A1819;" points="102.529,44.038 102.529,41.962 91.82,32.449 91.82,34.525 	"/>
	<polygon style="fill:#1A1819;" points="71.437,18.624 70.764,20.352 71.709,25.491 72.58,25.333 	"/>
	<polygon style="fill:#1A1819;" points="68.949,28.204 70.728,27.683 75.769,29.054 75.536,29.911 	"/>
	<polygon style="fill:#1A1819;" points="72.712,32.216 72.163,33.585 73.108,37.536 74.066,37.322 	"/>
	<polygon style="fill:#1A1819;" points="85.732,21.481 86.406,23.207 85.464,28.348 84.59,28.189 	"/>
	<polygon style="fill:#1A1819;" points="92.822,26.646 91.045,26.124 86.002,27.498 86.235,28.352 	"/>
	<polygon style="fill:#1A1819;" points="85.482,34.126 86.031,35.5 85.088,39.449 84.127,39.233 	"/>
	<polygon style="fill:#1A1819;" points="111.795,18.907 112.467,20.635 111.522,25.779 110.65,25.617 	"/>
	<polygon style="fill:#1A1819;" points="113.776,28.436 112.001,27.911 106.956,29.283 107.189,30.142 	"/>
	<polygon style="fill:#1A1819;" points="109.236,33.169 109.786,34.54 108.841,38.49 107.883,38.273 	"/>
	<polygon style="fill:#1A1819;" points="94.424,18.661 93.755,20.389 94.696,25.533 95.571,25.372 	"/>
	<polygon style="fill:#1A1819;" points="95.702,32.255 95.155,33.624 96.094,37.578 97.054,37.363 	"/>
	<polygon style="fill:#1A1819;" points="108.1,19.007 106.354,19.628 103.084,23.706 103.775,24.261 	"/>
	<polygon style="fill:#1A1819;" points="75.3,13.374 77.043,13.998 80.317,18.074 79.624,18.628 	"/>
	<polygon style="fill:#1A1819;" points="99.348,12.848 101.096,13.467 103.016,15.894 102.322,16.449 	"/>
	<polygon style="fill:#1A1819;" points="84.055,11.916 82.311,12.538 80.387,14.965 81.079,15.52 	"/>
	<path style="fill-rule:evenodd;clip-rule:evenodd;fill:#1A1819;" d="M109.032,0.511c0.204,0.182,0.984,1.338,1.219,2.088
		c0.131,0.42,0.164,0.877,0.379,1.268c0.286,0.526,0.538,1.077,0.79,1.624c0.405,0.895,0.786,1.82,1.312,2.647
		c0.394,0.613,0.891,0.848,1.554,1.065c2.009,0.649,4.138,0.578,6.087,1.454c0.665,0.296,1.949,0.651,2.329,1.319
		c0.191,0.336,0.251,0.735,0.319,1.114c0.08,0.44,0.326,0.825,0.408,1.258c0.149,0.804-0.515,1.665-0.719,2.412
		c-0.108,0.394-0.227,0.797-0.414,1.163c-0.182,0.351-0.468,0.58-0.685,0.897c-0.74,1.074-1.039,2.118-0.197,3.218
		c0.646,0.847,1.627,1.389,2.206,2.293c0.252,0.398,0.368,0.851,0.28,1.322c-0.118,0.62-0.706,1.105-0.436,1.756
		c0.438,1.055,1.716,1.409,2.146,2.42c0.456,1.082-0.258,2.392-1.008,3.142c-1.039,1.04-2.565,0.968-3.46,2.263
		c-0.998,1.447-0.765,3.085-1.274,4.674c-0.248,0.768-0.682,1.389-1.155,2.021c-0.405,0.538-0.76,1.173-1.323,1.562
		c-0.695,0.48-1.582,0.695-2.365,0.976c-0.699,0.246-1.115,0.268-1.803,0.029c-0.61-0.212-0.84-0.441-1.246-0.957
		c-0.141-0.176-0.309-0.397-0.534-0.468c-0.173-0.057-0.173-0.318-0.349-0.467c-0.839-0.713-0.475-0.941-1.25-1.248
		c-0.746-0.298-1.402-0.285-2.104-0.67c0.709-0.397,1.555-0.637,2.359-0.545c0.895,0.1,1.418,0.676,1.965,1.337
		c0.447,0.53,0.939,1.69,1.644,1.829c0.799,0.158,1.969-0.334,2.666-0.728c0.35-0.195,0.652-0.929,0.896-1.249
		c0.217-0.281,0.579-0.562,0.747-0.859c0.174-0.305,0.039-0.688,0.202-0.989c0.217-0.407,0.56-0.362,0.646-0.86
		c0.07-0.4,0.037-0.547,0.031-0.856c-0.008-0.411,0.07-0.818,0.206-1.206c0.314-0.893,0.894-1.669,1.513-2.36
		c0.451-0.512,0.964-1.137,1.537-1.5c0.514-0.329,1.108-0.498,1.623-0.819c0.419-0.262,0.578-0.853,0.344-1.393
		c-0.216-0.498-1.738-2.337-1.989-2.748c-0.435-0.715,0.047-1.467,0.112-2.201c0.076-0.888-0.318-1.2-0.883-1.657
		c-0.678-0.549-1.984-1.614-1.795-2.583c0.071-0.363-0.217-0.678-0.094-1.018c0.134-0.361,0.208-0.743,0.294-1.122
		c0.206-0.911,0.7-1.522,1.204-2.285c0.64-0.963,1.383-2.088,0.871-3.381c-0.969-2.457-4.518-2.08-6.504-2.734
		c-0.331-0.111-0.624-0.32-0.961-0.412c-0.383-0.106-0.789-0.099-1.168-0.23c-0.707-0.238-0.835-0.369-1.17-0.956
		c-0.084-0.148-0.708-1.191-0.938-1.551c-0.541-0.847-0.922-1.791-1.311-2.721c-0.196-0.466-0.331-1.913-0.707-2.13
		c-0.123-0.074-0.463-0.565-0.526-0.71c-0.146-0.347-0.729-0.434-1.094-0.508c-1.045-0.219-1.371,0.308-2.147,0.38
		c-0.312,0.033-0.558,0.406-0.805,0.711c-0.207,0.172-0.319,0.27-0.527,0.373c0.004-0.003-0.87,0.697-1.327,0.881
		c-0.626,0.255-1.28,0.798-1.859,1.051c-0.727,0.317-1.281,0.772-2.061,0.975c-0.83,0.214-1.667,0.222-2.407-0.165
		c-0.624-0.327-1.34-0.727-1.583-1.431c-0.319-0.928-0.707-1.006-1.499-0.969c-0.407,0.02-0.845-0.074-1.192,0.215
		c-0.297,0.246-0.712,0.058-1.075,0.226c-0.569,0.268-1.434,1.122-1.719,1.659c-0.74,1.407-1.692,2.14-3.034,2.879
		c-0.563,0.308-1.433,0.343-2.084,0.154c-0.216-0.062-0.6-0.137-0.717-0.333c-0.196-0.005-0.381-0.096-0.539-0.206
		c-0.166-0.116-0.318-0.264-0.442-0.431c-0.156-0.198-0.253-0.267-0.398-0.465c-0.353-0.478-0.661-0.719-0.814-1.195
		c-0.237-0.737-0.698-1.363-1.255-1.85c-1.055-0.924-2.216-1.549-3.552-1.779c-0.389-0.066-0.964-0.232-1.352-0.084
		c-0.218,0.084-0.441,0.026-0.714,0.062c-0.453,0.056-0.857,0.288-1.242,0.528c-0.689,0.437-1.5,1.251-2.141,1.762
		c-0.888,0.708-1.195,1.591-1.244,2.668c-0.021,0.436-0.266,0.756-0.238,1.166c0.023,0.436,0.266,0.822,0.255,1.276
		c-0.017,0.694,0.005,1.199-0.443,1.68c-0.281,0.305-0.943,0.884-1.599,1.035c-0.799,0.186-2.538,0.179-3.291,0.007
		c-0.903-0.203-3.359-1.508-4.661-0.156c-0.919,0.95,0.954,2.936,1.171,3.841c0.219,0.904,0.182,1.84,0.029,2.75
		c-0.169,1.022,0.42,1.988,0.921,2.815c0.493,0.801,0.23,1.699-0.216,2.587c-0.207,0.402-0.091,0.704-0.369,1.062
		c-0.454,0.583-0.491,0.84-0.742,1.261c-0.453,0.765-1.328,1.133-1.752,1.947c-0.311,0.592-1.056,0.93-1.143,1.716
		c-0.137,1.208,0.85,1.197,1.353,1.405c0.302,0.122,0.146,0.101,0.451,0.208c0.317,0.106,0.558,0.269,0.866,0.399
		c0.494,0.214,1.262,0.413,1.763,0.604c0.188,0.071,0.387,0.275,0.585,0.323c0.488,0.111,0.918,0.283,1.37,0.535
		c0.451,0.246,0.333,0.118,0.507,0.169c0.158,0.046,0.23,0.214,0.374,0.249c0.28,0.074,0.489,0.401,0.697,0.627
		c0.469,0.505,0.748,1.27,0.8,1.947c0.083,1.041-0.347,2.192-0.557,3.201c-0.081,0.4,0.08,0.636,0.269,1.003
		c0.388,0.757,0.728,1.357,1.557,1.751c0.852,0.408,1.731,0.248,2.598-0.008c0.897-0.266,1.809-0.446,2.744-0.299
		c0.712,0.109,1.165,0.153,1.68,0.62c0.29,0.259,1.154,0.93,1.151,1.5c-0.207-0.391-0.967-0.338-1.087-0.352
		c-0.547-0.051-1.088-0.067-1.576-0.335c-0.777-0.429-1.693-0.081-2.478,0.138c-0.261,0.076-0.54,0.113-0.798,0.206
		c-0.068,0.021-0.103,0-0.208,0.013c-0.248-0.006-0.526,0.042-0.771,0.133c-0.488,0.168-1.289-0.181-1.748-0.339
		c-0.889-0.321-1.521-0.94-1.904-1.808c-0.383-0.867-1.029-1.583-0.996-2.542c0.014-0.403,0.553-1.651,0.646-2.605
		c0.181-1.865-2.25-2.195-3.408-2.885c-0.878-0.521-1.757-0.814-2.743-1.032c-0.804-0.174-1.581-0.312-2.078-1.045
		c-0.966-1.414-0.271-2.942,0.721-4.071c0.628-0.715,1.258-1.396,1.819-2.168c0.248-0.335,0.504-0.683,0.544-1.112
		c0.037-0.398,0.149-0.33,0.442-0.598c0.629-0.57,0.962-1.125,0.258-1.746c-0.718-0.633-1.119-1.495-1.143-2.477
		c-0.027-1.308,0.672-3.306-0.396-4.359c-1.335-1.31-1.548-3.436,0.106-4.606c0.799-0.566,1.674-0.122,2.6-0.266
		c0.368-0.055,0.741-0.305,1.11-0.11c0.17,0.09,0.79,0.443,0.824,0.581c0.194,0.757,2.119,0.08,2.624,0.362
		c0.709,0.396,1.339-0.365,1.926-0.91c0.683-0.631,0.317-1.396,0.251-2.212c-0.124-1.506,0.03-3.232,0.965-4.471
		c0.477-0.628,1.195-0.849,1.714-1.404c0.21-0.228,0.155-0.284,0.454-0.357c0.224-0.057,0.425-0.171,0.614-0.296
		c0.398-0.265,0.809-0.504,1.271-0.613c0.798-0.183,1.662-0.303,2.477-0.414c0.75-0.101,1.221,0.004,1.861,0.333
		c0.291,0.148,0.639,0.116,0.938,0.277c0.312,0.166,0.629,0.362,0.924,0.559c0.287,0.196,0.527,0.453,0.782,0.687
		c0.306,0.288,0.684,0.473,0.987,0.757c0.482,0.462,0.762,1.117,0.981,1.74c0.233,0.675,0.8,1.018,1.142,1.619
		c0.257,0.438,0.265,0.662,0.829,0.598c0.521-0.06,1.032-0.256,1.516-0.462c1.09-0.463,1.502-1.352,2.178-2.288
		c0.422-0.584,1.032-1.022,1.521-1.541c0.492-0.525,1.211-0.946,1.894-1.145c1.305-0.378,2.834-0.111,3.935,0.693
		c0.13,0.096,0.257,0.19,0.383,0.289c0.262,0.196,0.214,0.335,0.326,0.633c0.122,0.316,0.298,0.555,0.564,0.752
		c0.249,0.184,2.231,0.304,2.741,0.031c0.412-0.22,0.752-0.683,1.161-0.834c0.415-0.149,0.732-0.469,1.081-0.732
		c0.4-0.305,0.876-0.403,1.302-0.66c0.486-0.293,0.933-0.659,1.42-0.951c0.435-0.261,0.868-0.673,1.37-0.776
		c0.471-0.096,0.996-0.268,1.473-0.254C107.841,0.021,108.498,0.168,109.032,0.511"/>
</g>
</svg>
